<svg width="189" height="44" viewBox="0 0 189 44" fill="none" xmlns="http://www.w3.org/2000/svg">
<rect width="189" height="44" fill="white" fill-opacity="0.05"/>
<g clip-path="url(#clip0_1409_111867)">
<path d="M21.3704 21.8677L22.0267 17.7798C22.0626 17.5632 22.1857 17.3467 22.4715 17.3467H26.1359C26.8329 17.3528 27.5672 17.4144 28.1098 17.6945C28.1068 17.8488 28.093 18.0978 28.068 18.2557C27.7371 20.3337 25.9248 21.8673 23.7899 21.8673H21.3701L21.3704 21.8677Z" fill="white"/>
<path d="M29.0031 18.1865C28.9948 18.372 28.9843 18.5383 28.9556 18.7172C28.5809 21.0694 26.5013 22.8057 24.0845 22.8057H21.6865C21.4198 22.8054 21.1913 22.9973 21.1498 23.2576L19.9836 30.4978C19.9411 30.7617 20.1485 31.0003 20.4198 31.0003H22.9881C23.265 31.0003 23.4793 30.8006 23.5235 30.5578L24.1593 26.633C24.1975 26.3941 24.4069 26.218 24.6525 26.218H26.18C28.5967 26.218 30.6764 24.4817 31.0511 22.1295C31.3171 20.4597 30.4633 18.9402 29.0034 18.1868L29.0031 18.1865Z" fill="white"/>
<path d="M21.2135 16.8228C21.2517 16.5842 21.4608 16.4081 21.7064 16.4081H26.0504C26.8393 16.4098 27.5933 16.462 28.1777 16.7589C28.1853 14.5915 26.2278 12.9887 23.9562 13.0001H18.7019C18.4595 13.0108 18.2356 13.1878 18.1955 13.451L16.0088 27.0739C15.9529 27.3521 16.1712 27.5887 16.4352 27.5887H19.4835L21.2135 16.8228Z" fill="white"/>
</g>
<path d="M41.551 22.8477C43.6511 22.8477 45.4339 21.3391 45.7599 19.2943C46.0882 17.2324 44.4528 15.435 42.1341 15.4307H38.3987C38.2549 15.4307 38.1322 15.5336 38.1097 15.6738L36.4424 26.0821C36.4162 26.2437 36.5433 26.3903 36.7096 26.3903H38.687C38.8308 26.3903 38.9535 26.2873 38.976 26.1472L39.4654 23.0907C39.488 22.9506 39.6107 22.8477 39.7545 22.8477H41.5517H41.551ZM43.2052 19.2028C43.0832 19.9649 42.4849 20.5262 41.3397 20.5262H39.8757L40.3194 17.7543H41.7573C42.9416 17.7543 43.3265 18.4421 43.2052 19.2028Z" fill="white"/>
<path d="M54.3252 18.7116H52.4488C52.305 18.7116 52.1823 18.8145 52.1598 18.9546L52.098 19.3379C52.098 19.3379 50.6413 17.7707 48.062 18.8288C46.5828 19.4358 45.8726 20.6906 45.5705 21.605C45.5705 21.605 44.6105 24.3955 46.7803 25.9291C46.7803 25.9291 48.7918 27.4048 51.0567 25.8376L51.0175 26.0821C50.9914 26.2437 51.1184 26.3902 51.2847 26.3902H53.1612C53.3049 26.3902 53.4277 26.2873 53.4502 26.1471L54.5917 19.019C54.6179 18.8574 54.4908 18.7108 54.3245 18.7108L54.3252 18.7116ZM51.5672 22.651C51.4031 23.6734 50.552 24.4262 49.4599 24.4262C49.2442 24.4262 49.0467 24.3969 48.8702 24.3411C48.0605 24.0852 47.5987 23.3195 47.7316 22.4894C47.8957 21.467 48.7497 20.7142 49.8411 20.7142C50.0568 20.7142 50.2543 20.7435 50.4307 20.7992C51.2404 21.0552 51.6994 21.8209 51.5665 22.651H51.5672Z" fill="white"/>
<path d="M68.5788 22.8477C70.6789 22.8477 72.4617 21.3391 72.7878 19.2943C73.116 17.2324 71.4806 15.435 69.162 15.4307H65.4265C65.2827 15.4307 65.16 15.5336 65.1375 15.6738L63.4702 26.0821C63.4441 26.2437 63.5712 26.3903 63.7374 26.3903H65.7148C65.8586 26.3903 65.9813 26.2873 66.0038 26.1472L66.4933 23.0907C66.5158 22.9506 66.6385 22.8477 66.7823 22.8477H68.5796H68.5788ZM70.2331 19.2028C70.1111 19.9649 69.5127 20.5262 68.3675 20.5262H66.9036L67.3473 17.7543H68.7851C69.9695 17.7543 70.3543 18.4421 70.2331 19.2028Z" fill="white"/>
<path d="M81.3526 18.7116H79.4761C79.3323 18.7116 79.2096 18.8145 79.1871 18.9546L79.1254 19.3379C79.1254 19.3379 77.6687 17.7707 75.0893 18.8288C73.6101 19.4358 72.8999 20.6906 72.5978 21.605C72.5978 21.605 71.6378 24.3955 73.8076 25.9291C73.8076 25.9291 75.8191 27.4048 78.084 25.8376L78.0448 26.0821C78.0187 26.2437 78.1458 26.3902 78.3121 26.3902H80.1885C80.3323 26.3902 80.455 26.2873 80.4775 26.1471L81.6191 19.019C81.6452 18.8574 81.5181 18.7108 81.3518 18.7108L81.3526 18.7116ZM78.5945 22.651C78.4304 23.6734 77.5794 24.4262 76.4872 24.4262C76.2715 24.4262 76.074 24.3969 75.8975 24.3411C75.0879 24.0852 74.626 23.3195 74.7589 22.4894C74.923 21.467 75.777 20.7142 76.8684 20.7142C77.0841 20.7142 77.2816 20.7435 77.4581 20.7992C78.2678 21.0552 78.7267 21.8209 78.5938 22.651H78.5945Z" fill="white"/>
<path d="M61.2143 18.8885L58.9523 22.6485L57.8042 18.9164C57.7672 18.7948 57.6532 18.7119 57.5246 18.7119H55.4834C55.3345 18.7119 55.2292 18.8549 55.275 18.9943L57.3322 25.281L55.4718 28.2438C55.3817 28.3875 55.4863 28.5734 55.6584 28.5734H57.8572C57.985 28.5734 58.1041 28.5076 58.1702 28.3996L63.9164 19.0401C64.005 18.8964 63.8997 18.7126 63.7291 18.7126H61.5302C61.401 18.7126 61.2819 18.7798 61.2158 18.8892L61.2143 18.8885Z" fill="white"/>
<path d="M83.4637 15.6738L81.7964 26.0821C81.7702 26.2437 81.8973 26.3903 82.0636 26.3903H84.0403C84.184 26.3903 84.3068 26.2873 84.3293 26.1472L85.9966 15.7388C86.0227 15.5772 85.8956 15.4307 85.7293 15.4307H83.7527C83.6089 15.4307 83.4862 15.5336 83.4637 15.6738Z" fill="white"/>
<path d="M95.755 21H96.763V16.671H98.284V15.771H94.234V16.671H95.755V21ZM99.1926 21H100.201V18.93H102.586V21H103.594V15.771H102.586V18.03H100.201V15.771H99.1926V21ZM104.923 21H108.613V20.1H105.931V18.903H107.965V18.003H105.931V16.671H108.451V15.771H104.923V21ZM112.086 21H113.094V19.2H114.021C115.236 19.2 116.037 18.651 116.037 17.499C116.037 16.509 115.47 15.771 114.129 15.771H112.086V21ZM113.094 18.3V16.671H114.066C114.696 16.671 114.975 16.986 114.975 17.472C114.975 17.976 114.696 18.3 114.012 18.3H113.094ZM117.008 21H118.016V19.2H118.682L119.969 21H121.211L119.825 19.101C120.608 18.858 121.013 18.309 121.013 17.499C121.013 16.509 120.428 15.771 119.096 15.771H117.008V21ZM118.016 18.3V16.671H119.015C119.645 16.671 119.951 16.986 119.951 17.472C119.951 17.976 119.654 18.3 118.961 18.3H118.016ZM122.132 21H125.822V20.1H123.14V18.903H125.174V18.003H123.14V16.671H125.66V15.771H122.132V21ZM126.887 21H127.895V18.993H130.091V18.093H127.895V16.671H130.523V15.771H126.887V21ZM131.457 21H135.147V20.1H132.465V18.903H134.499V18.003H132.465V16.671H134.985V15.771H131.457V21ZM136.212 21H137.22V19.2H137.886L139.173 21H140.415L139.029 19.101C139.812 18.858 140.217 18.309 140.217 17.499C140.217 16.509 139.632 15.771 138.3 15.771H136.212V21ZM137.22 18.3V16.671H138.219C138.849 16.671 139.155 16.986 139.155 17.472C139.155 17.976 138.858 18.3 138.165 18.3H137.22ZM141.354 21H142.362V19.2H143.028L144.315 21H145.557L144.171 19.101C144.954 18.858 145.359 18.309 145.359 17.499C145.359 16.509 144.774 15.771 143.442 15.771H141.354V21ZM142.362 18.3V16.671H143.361C143.991 16.671 144.297 16.986 144.297 17.472C144.297 17.976 144 18.3 143.307 18.3H142.362ZM146.477 21H150.167V20.1H147.485V18.903H149.519V18.003H147.485V16.671H150.005V15.771H146.477V21ZM151.233 21H153.033C154.806 21 155.868 19.929 155.868 18.39C155.868 16.851 154.761 15.771 153.015 15.771H151.233V21ZM152.241 20.1V16.671H153.033C154.077 16.671 154.815 17.4 154.815 18.39C154.815 19.362 154.086 20.1 152.97 20.1H152.241ZM94.675 29H95.683V27.2H96.61C97.825 27.2 98.626 26.651 98.626 25.499C98.626 24.509 98.059 23.771 96.718 23.771H94.675V29ZM95.683 26.3V24.671H96.655C97.285 24.671 97.564 24.986 97.564 25.472C97.564 25.976 97.285 26.3 96.601 26.3H95.683ZM98.6436 29H99.7056L100.075 27.992H102.28L102.649 29H103.72L101.659 23.771H100.687L98.6436 29ZM100.399 27.11L101.164 25.022H101.182L101.956 27.11H100.399ZM105.118 29H106.126V26.696L107.953 23.771H106.765L105.64 25.679H105.622L104.488 23.771H103.309L105.118 26.696V29ZM108.518 29H109.526V25.634H109.544L110.984 27.983H111.641L113.09 25.616L113.099 25.625V29H114.107V23.771H113.063L111.317 26.768H111.299L109.553 23.771H108.518V29ZM115.443 29H119.133V28.1H116.451V26.903H118.485V26.003H116.451V24.671H118.971V23.771H115.443V29ZM120.153 29H121.161V25.508L121.188 25.499L123.717 29H124.761V23.771H123.753V27.344L123.735 27.362L121.17 23.771H120.153V29ZM127.15 29H128.158V24.671H129.679V23.771H125.629V24.671H127.15V29ZM132.189 29.063C133.134 29.072 134.124 28.613 134.124 27.47C134.133 26.471 133.368 26.228 132.441 25.886C131.811 25.652 131.478 25.49 131.478 25.139C131.487 24.806 131.793 24.617 132.189 24.617C132.54 24.617 132.945 24.752 133.404 25.094L133.98 24.356C133.476 23.942 132.819 23.699 132.153 23.699C131.208 23.708 130.416 24.293 130.416 25.184C130.416 26.183 131.244 26.543 132.072 26.822C132.738 27.047 133.071 27.182 133.062 27.569C133.062 27.911 132.747 28.145 132.216 28.145C131.784 28.136 131.235 27.947 130.821 27.506L130.227 28.235C130.785 28.802 131.496 29.063 132.189 29.063ZM137.557 29H138.565V27.2H139.492C140.707 27.2 141.508 26.651 141.508 25.499C141.508 24.509 140.941 23.771 139.6 23.771H137.557V29ZM138.565 26.3V24.671H139.537C140.167 24.671 140.446 24.986 140.446 25.472C140.446 25.976 140.167 26.3 139.483 26.3H138.565ZM141.525 29H142.587L142.956 27.992H145.161L145.53 29H146.601L144.54 23.771H143.568L141.525 29ZM143.28 27.11L144.045 25.022H144.063L144.837 27.11H143.28ZM147.392 29H148.4V27.2H149.066L150.353 29H151.595L150.209 27.101C150.992 26.858 151.397 26.309 151.397 25.499C151.397 24.509 150.812 23.771 149.48 23.771H147.392V29ZM148.4 26.3V24.671H149.399C150.029 24.671 150.335 24.986 150.335 25.472C150.335 25.976 150.038 26.3 149.345 26.3H148.4ZM153.49 29H154.498V24.671H156.019V23.771H151.969V24.671H153.49V29ZM156.883 29H157.891V25.508L157.918 25.499L160.447 29H161.491V23.771H160.483V27.344L160.465 27.362L157.9 23.771H156.883V29ZM162.781 29H166.471V28.1H163.789V26.903H165.823V26.003H163.789V24.671H166.309V23.771H162.781V29ZM167.536 29H168.544V27.2H169.21L170.497 29H171.739L170.353 27.101C171.136 26.858 171.541 26.309 171.541 25.499C171.541 24.509 170.956 23.771 169.624 23.771H167.536V29ZM168.544 26.3V24.671H169.543C170.173 24.671 170.479 24.986 170.479 25.472C170.479 25.976 170.182 26.3 169.489 26.3H168.544Z" fill="white"/>
<defs>
<clipPath id="clip0_1409_111867">
<rect width="15.0993" height="18" fill="white" transform="translate(16 13)"/>
</clipPath>
</defs>
</svg>
